<?xml version="1.0" standalone="no"?>
<!DOCTYPE svg PUBLIC "-//W3C//DTD SVG 20010904//EN"
 "http://www.w3.org/TR/2001/REC-SVG-20010904/DTD/svg10.dtd">
<svg version="1.0" xmlns="http://www.w3.org/2000/svg"
 width="300.000000pt" height="300.000000pt" viewBox="0 0 300.000000 300.000000"
 preserveAspectRatio="xMidYMid meet">
<metadata>
Created by potrace 1.11, written by Peter Selinger 2001-2013
</metadata>
<g transform="translate(0.000000,300.000000) scale(0.100000,-0.100000)"
fill="#000000" stroke="none">
<path d="M1000 2940 c-11 -11 -20 -27 -20 -35 0 -8 9 -24 20 -35 11 -11 27
-20 35 -20 8 0 24 9 35 20 11 11 20 27 20 35 0 8 -9 24 -20 35 -11 11 -27 20
-35 20 -8 0 -24 -9 -35 -20z"/>
<path d="M1085 2811 c-3 -6 -17 -94 -32 -198 -14 -103 -30 -192 -34 -197 -4
-5 -89 6 -193 24 -101 17 -190 29 -196 25 -11 -7 -8 -154 6 -291 l5 -52 -183
-8 c-150 -7 -183 -12 -186 -24 -3 -17 328 -469 354 -483 12 -7 24 -1 47 21 18
16 220 179 450 362 252 200 417 338 415 346 -5 22 -419 484 -434 484 -7 0 -15
-4 -19 -9z"/>
<path d="M530 2570 c-11 -11 -20 -27 -20 -35 0 -19 36 -55 55 -55 19 0 55 36
55 55 0 19 -36 55 -55 55 -8 0 -24 -9 -35 -20z"/>
<path d="M1133 1914 c-249 -195 -453 -362 -453 -369 0 -8 10 -20 22 -26 12 -7
221 -63 465 -125 432 -109 443 -113 470 -145 16 -18 117 -139 226 -268 l198
-235 -172 -172 c-122 -123 -170 -177 -166 -188 4 -9 12 -16 20 -16 7 0 98 86
202 191 146 147 234 225 378 336 181 140 211 172 167 180 -8 2 -100 -62 -204
-142 -104 -80 -190 -145 -192 -145 -3 0 -399 469 -431 511 -9 11 -17 154 -28
484 -9 257 -18 472 -21 476 -3 5 -11 9 -17 9 -7 0 -216 -160 -464 -356z m448
-28 c6 -164 9 -299 7 -302 -3 -2 -162 -11 -354 -19 -192 -8 -358 -20 -369 -25
-14 -7 -33 -7 -63 2 l-43 13 403 317 c222 174 404 315 406 313 1 -1 7 -136 13
-299z"/>
<path d="M160 2220 c-11 -11 -20 -27 -20 -35 0 -19 36 -55 55 -55 19 0 55 36
55 55 0 19 -36 55 -55 55 -8 0 -24 -9 -35 -20z"/>
</g>
</svg>
