<?xml version="1.0" encoding="UTF-8" standalone="no"?>
<svg xmlns="http://www.w3.org/2000/svg" 
    xmlns:xlink="http://www.w3.org/1999/xlink" class="card" face="QH" height="3.5in" preserveAspectRatio="none" viewBox="-120 -168 240 336" width="2.5in">

    <defs>
        <clipPath id="clip">
            <rect width="239" height="335" x="-119.5" y="-167.5" rx="12" ry="12" fill="white" stroke="white"/>
        </clipPath>
    </defs>


    <defs>
        <clipPath id="clipInner">
            <rect width="209" height="305" x="-104.5" y="-152.5" rx="6" ry="6" fill="white" stroke="white"/>
        </clipPath>
    </defs>

    <rect width="239" height="335" x="-119.5" y="-167.5" rx="12" ry="12" fill="white" stroke="none"/>

    <rect width="239" height="335" x="-119.5" y="-167.5" rx="12" ry="12" fill="white" stroke="none"/>

    <g id="stripes" clip-path="url(#clipInner)">
        <line x1="-120" y1="-168" x2="240" y2="336" style="stroke:rgb(255,0,0);stroke-width:2" />
        <line x1="-110" y1="-168" x2="250" y2="336" style="stroke:rgb(255,0,0);stroke-width:2" />
        <line x1="-100" y1="-168" x2="260" y2="336" style="stroke:rgb(255,0,0);stroke-width:2" />
        <line x1="-90" y1="-168" x2="270" y2="336" style="stroke:rgb(255,0,0);stroke-width:2" />
        <line x1="-80" y1="-168" x2="280" y2="336" style="stroke:rgb(255,0,0);stroke-width:2" />
        <line x1="-70" y1="-168" x2="290" y2="336" style="stroke:rgb(255,0,0);stroke-width:2" />
        <line x1="-60" y1="-168" x2="300" y2="336" style="stroke:rgb(255,0,0);stroke-width:2" />
        <line x1="-50" y1="-168" x2="310" y2="336" style="stroke:rgb(255,0,0);stroke-width:2" />
        <line x1="-40" y1="-168" x2="320" y2="336" style="stroke:rgb(255,0,0);stroke-width:2" />
        <line x1="-30" y1="-168" x2="330" y2="336" style="stroke:rgb(255,0,0);stroke-width:2" />
        <line x1="-20" y1="-168" x2="340" y2="336" style="stroke:rgb(255,0,0);stroke-width:2" />
        <line x1="-10" y1="-168" x2="350" y2="336" style="stroke:rgb(255,0,0);stroke-width:2" />
        <line x1="0" y1="-168" x2="360" y2="336" style="stroke:rgb(255,0,0);stroke-width:2" />
        <line x1="10" y1="-168" x2="370" y2="336" style="stroke:rgb(255,0,0);stroke-width:2" />
        <line x1="20" y1="-168" x2="380" y2="336" style="stroke:rgb(255,0,0);stroke-width:2" />
        <line x1="30" y1="-168" x2="390" y2="336" style="stroke:rgb(255,0,0);stroke-width:2" />
        <line x1="40" y1="-168" x2="400" y2="336" style="stroke:rgb(255,0,0);stroke-width:2" />
        <line x1="50" y1="-168" x2="410" y2="336" style="stroke:rgb(255,0,0);stroke-width:2" />
        <line x1="60" y1="-168" x2="420" y2="336" style="stroke:rgb(255,0,0);stroke-width:2" />
        <line x1="70" y1="-168" x2="430" y2="336" style="stroke:rgb(255,0,0);stroke-width:2" />
        <line x1="80" y1="-168" x2="440" y2="336" style="stroke:rgb(255,0,0);stroke-width:2" />
        <line x1="90" y1="-168" x2="450" y2="336" style="stroke:rgb(255,0,0);stroke-width:2" />
        <line x1="100" y1="-168" x2="460" y2="336" style="stroke:rgb(255,0,0);stroke-width:2" />
        <line x1="110" y1="-168" x2="470" y2="336" style="stroke:rgb(255,0,0);stroke-width:2" />

        <line x1="-130" y1="-168" x2="230" y2="336" style="stroke:rgb(255,0,0);stroke-width:2" />
        <line x1="-140" y1="-168" x2="220" y2="336" style="stroke:rgb(255,0,0);stroke-width:2" />
        <line x1="-150" y1="-168" x2="210" y2="336" style="stroke:rgb(255,0,0);stroke-width:2" />
        <line x1="-160" y1="-168" x2="200" y2="336" style="stroke:rgb(255,0,0);stroke-width:2" />
        <line x1="-170" y1="-168" x2="190" y2="336" style="stroke:rgb(255,0,0);stroke-width:2" />
        <line x1="-180" y1="-168" x2="180" y2="336" style="stroke:rgb(255,0,0);stroke-width:2" />
        <line x1="-190" y1="-168" x2="170" y2="336" style="stroke:rgb(255,0,0);stroke-width:2" />
        <line x1="-200" y1="-168" x2="160" y2="336" style="stroke:rgb(255,0,0);stroke-width:2" />
        <line x1="-210" y1="-168" x2="150" y2="336" style="stroke:rgb(255,0,0);stroke-width:2" />
        <line x1="-220" y1="-168" x2="140" y2="336" style="stroke:rgb(255,0,0);stroke-width:2" />
        <line x1="-230" y1="-168" x2="130" y2="336" style="stroke:rgb(255,0,0);stroke-width:2" />
        <line x1="-240" y1="-168" x2="120" y2="336" style="stroke:rgb(255,0,0);stroke-width:2" />
        <line x1="-250" y1="-168" x2="110" y2="336" style="stroke:rgb(255,0,0);stroke-width:2" />
        <line x1="-260" y1="-168" x2="100" y2="336" style="stroke:rgb(255,0,0);stroke-width:2" />
        <line x1="-270" y1="-168" x2="90" y2="336" style="stroke:rgb(255,0,0);stroke-width:2" />
        <line x1="-280" y1="-168" x2="80" y2="336" style="stroke:rgb(255,0,0);stroke-width:2" />
        <line x1="-290" y1="-168" x2="70" y2="336" style="stroke:rgb(255,0,0);stroke-width:2" />
        <line x1="-300" y1="-168" x2="60" y2="336" style="stroke:rgb(255,0,0);stroke-width:2" />
        <line x1="-310" y1="-168" x2="50" y2="336" style="stroke:rgb(255,0,0);stroke-width:2" />
        <line x1="-320" y1="-168" x2="40" y2="336" style="stroke:rgb(255,0,0);stroke-width:2" />
        <line x1="-330" y1="-168" x2="30" y2="336" style="stroke:rgb(255,0,0);stroke-width:2" />
        <line x1="-340" y1="-168" x2="20" y2="336" style="stroke:rgb(255,0,0);stroke-width:2" />
        <line x1="-350" y1="-168" x2="10" y2="336" style="stroke:rgb(255,0,0);stroke-width:2" />
    </g>


    <rect width="239" height="335" x="-119.5" y="-167.5" rx="12" ry="12" fill="none" stroke="black"/>

    <!-- <rect width="239" height="335" x="-119.5" y="-167.5" rx="12" ry="12" fill="blue" stroke="blue" clip-path="url(#clipInner)"/> -->
    <rect width="209" height="305" x="-104.5" y="-152.5" rx="6" ry="6" fill="none" style="stroke:rgb(255,0,0);stroke-width:1"/>


</svg>