<?xml version="1.0" encoding="UTF-8" standalone="no"?>
<svg xmlns="http://www.w3.org/2000/svg" 
    xmlns:xlink="http://www.w3.org/1999/xlink" class="card" face="AS" height="100" preserveAspectRatio="none" viewBox="0 0 120 120" width="100">
    <symbol id="S" viewBox="-600 -600 1200 1200" preserveAspectRatio="xMinYMid">
        <path d="M0 -500C100 -250 355 -100 355 185A150 150 0 0 1 55 185A10 10 0 0 0 35 185C35 385 85 400 130 500L-130 500C-85 400 -35 385 -35 185A10 10 0 0 0 -55 185A150 150 0 0 1 -355 185C-355 -100 -100 -250 0 -500Z"></path>
    </symbol>
    <use xlink:href="#S" height="120" width="120" x="0" y="0"></use>
</svg>